<svg id="Layer_1" data-name="Layer 1" xmlns="http://www.w3.org/2000/svg" viewBox="0 0 46.69 193.85"><defs><style>.cls-1{fill:#231f20;}</style></defs><title>close</title><path class="cls-1" d="M41,156a18.83,18.83,0,0,1,6.21,7.41,22,22,0,0,1,1.88,9.1,24.5,24.5,0,0,1-1.73,9.32,21,21,0,0,1-4.83,7.25,22.17,22.17,0,0,1-7.41,4.71,25.35,25.35,0,0,1-9.38,1.69,25.12,25.12,0,0,1-9.35-1.69A22.26,22.26,0,0,1,9,189.1a21.37,21.37,0,0,1-4.86-7.25,24.1,24.1,0,0,1-1.76-9.32A22.14,22.14,0,0,1,4,164.09a16.77,16.77,0,0,1,5.37-6.87l2.82,3.39a12.29,12.29,0,0,0-4.58,5.3,16.09,16.09,0,0,0-1.44,6.62,19.5,19.5,0,0,0,1.51,7.81,17.41,17.41,0,0,0,4.14,5.93A18.33,18.33,0,0,0,18.05,190a22.15,22.15,0,0,0,7.72,1.32A22.15,22.15,0,0,0,33.49,190a18.32,18.32,0,0,0,6.21-3.77,17.4,17.4,0,0,0,4.14-5.93,19.5,19.5,0,0,0,1.51-7.81,16.28,16.28,0,0,0-1.66-7.06,17,17,0,0,0-2.13-3.29,13.67,13.67,0,0,0-3.11-2.76Z" transform="translate(-2.43 -1.65)"/><path class="cls-1" d="M3.56,148.43v-4.14H44.22V123.58H48v24.85Z" transform="translate(-2.43 -1.65)"/><path class="cls-1" d="M25.77,119.94a25.12,25.12,0,0,1-9.35-1.69A22.26,22.26,0,0,1,9,113.54a21.38,21.38,0,0,1-4.86-7.25,25.59,25.59,0,0,1,0-18.64A21.37,21.37,0,0,1,9,80.41a22.26,22.26,0,0,1,7.37-4.71A25.12,25.12,0,0,1,25.77,74a25.35,25.35,0,0,1,9.38,1.69,22.17,22.17,0,0,1,7.41,4.71,21,21,0,0,1,4.83,7.25,26,26,0,0,1,0,18.64,21,21,0,0,1-4.83,7.25,22.17,22.17,0,0,1-7.41,4.71A25.35,25.35,0,0,1,25.77,119.94Zm0-4.14a22.17,22.17,0,0,0,7.72-1.32,18.32,18.32,0,0,0,6.21-3.77,17.4,17.4,0,0,0,4.14-5.93,21,21,0,0,0,0-15.63,17.4,17.4,0,0,0-4.14-5.93,18.32,18.32,0,0,0-6.21-3.77,22.15,22.15,0,0,0-7.72-1.32,22.15,22.15,0,0,0-7.72,1.32,18.33,18.33,0,0,0-6.21,3.77A17.41,17.41,0,0,0,7.7,89.16a21,21,0,0,0,0,15.63,17.41,17.41,0,0,0,4.14,5.93,18.33,18.33,0,0,0,6.21,3.77A22.17,22.17,0,0,0,25.77,115.8Z" transform="translate(-2.43 -1.65)"/><path class="cls-1" d="M39.77,63.53A10.62,10.62,0,0,0,44,59.29a12.46,12.46,0,0,0,1.38-5.93,11.84,11.84,0,0,0-.63-3.89A9.91,9.91,0,0,0,43,46.3a8.27,8.27,0,0,0-2.73-2.13,8.1,8.1,0,0,0-3.61-.78,6.93,6.93,0,0,0-3.83,1A7.79,7.79,0,0,0,30.32,47a19.18,19.18,0,0,0-1.66,3.67q-.69,2-1.38,4.2T25.71,59a14.07,14.07,0,0,1-2.29,3.67,10.2,10.2,0,0,1-3.54,2.6,12.67,12.67,0,0,1-5.27,1,11.41,11.41,0,0,1-5.24-1.16A11.18,11.18,0,0,1,5.53,62a14,14,0,0,1-2.32-4.55A18.41,18.41,0,0,1,2.43,52,17.48,17.48,0,0,1,3.71,45.3,12.83,12.83,0,0,1,8,39.93l2.57,3.58a10.53,10.53,0,0,0-3.29,3.67,10.65,10.65,0,0,0-1.1,5A13.54,13.54,0,0,0,6.73,56a9.54,9.54,0,0,0,1.57,3.17,7.72,7.72,0,0,0,2.6,2.17,7.91,7.91,0,0,0,3.7.82,7.15,7.15,0,0,0,5.11-1.69,12,12,0,0,0,2.82-4.24,44.87,44.87,0,0,0,1.82-5.52,26.76,26.76,0,0,1,2.1-5.52,11.92,11.92,0,0,1,3.67-4.24,10.94,10.94,0,0,1,6.5-1.69A12,12,0,0,1,42,40.37a11.72,11.72,0,0,1,3.92,3,13.14,13.14,0,0,1,2.42,4.42A16.75,16.75,0,0,1,49.12,53a20.9,20.9,0,0,1-1.54,8.1,14.8,14.8,0,0,1-5.18,6.34Z" transform="translate(-2.43 -1.65)"/><path class="cls-1" d="M3.56,29.83V2.65H7.32v23H23.14V4.1H26.9V25.68H44.22v-24H48V29.83Z" transform="translate(-2.43 -1.65)"/></svg>